<svg width="169" height="32" viewBox="0 0 169 32" fill="none" xmlns="http://www.w3.org/2000/svg">
<path fill-rule="evenodd" clip-rule="evenodd" d="M44.6187 6.33877C44.6187 5.86587 44.7016 5.39377 44.8668 4.92396C45.032 4.45406 45.2741 4.03295 45.5936 3.65915C45.9133 3.28535 46.3043 2.98425 46.7669 2.75514C47.2294 2.52524 47.7542 2.41074 48.3419 2.41074C49.0396 2.41074 49.6381 2.57014 50.1375 2.88825C50.4915 3.11375 50.7805 3.38735 51.0054 3.70925C51.1575 3.92715 51.099 4.22916 50.8771 4.37416C50.6682 4.51056 50.389 4.45756 50.2452 4.25286C50.1824 4.16366 50.1153 4.08216 50.0438 4.00825C49.8786 3.83875 49.698 3.70175 49.5036 3.59805C49.3092 3.49435 49.1095 3.42075 48.9036 3.37595C48.6976 3.33185 48.4963 3.30935 48.2982 3.30935C47.8648 3.30935 47.4807 3.39985 47.1464 3.58185C46.8122 3.76285 46.5317 3.99975 46.3043 4.29156C46.0762 4.58416 45.9055 4.91306 45.7919 5.27916C45.6781 5.64527 45.6213 6.01367 45.6213 6.38287C45.6213 6.79778 45.6889 7.19168 45.8249 7.56478C45.9609 7.93868 46.1499 8.26999 46.3919 8.55779C46.6348 8.84649 46.9213 9.07559 47.2517 9.24589C47.5821 9.4162 47.9417 9.5014 48.3311 9.5014C48.5363 9.5014 48.7476 9.475 48.9642 9.4232C49.1809 9.3721 49.3884 9.28849 49.5865 9.17399C49.7848 9.05939 49.97 8.91469 50.1428 8.74119C50.2221 8.66119 50.2947 8.57369 50.3608 8.47879C50.4988 8.28119 50.7645 8.22329 50.975 8.33919C51.2202 8.47429 51.302 8.79589 51.1413 9.02619C51.0607 9.14169 50.9701 9.25 50.8697 9.3512C50.6453 9.5772 50.3926 9.7676 50.1098 9.9232C49.8271 10.078 49.5275 10.1964 49.2117 10.2777C48.8958 10.3589 48.5878 10.3999 48.2867 10.3999C47.7503 10.3999 47.2586 10.2816 46.8107 10.0447C46.3628 9.8086 45.9755 9.4998 45.6489 9.11819C45.3217 8.73739 45.0689 8.30469 44.8892 7.82018C44.7086 7.33568 44.6187 6.84188 44.6187 6.33877ZM57.9244 10.3891C57.3735 10.3891 56.8725 10.2761 56.4208 10.0502C55.969 9.82486 55.5818 9.52536 55.2591 9.15145C54.9356 8.77845 54.6859 8.35115 54.51 7.86974C54.334 7.38904 54.2456 6.89754 54.2456 6.39453C54.2456 5.86893 54.3394 5.36593 54.5261 4.88522C54.7136 4.40462 54.9725 3.97891 55.3029 3.60891C55.6333 3.23971 56.0243 2.94561 56.4761 2.7273C56.9278 2.5091 57.4181 2.3999 57.9466 2.3999C58.4975 2.3999 58.9961 2.516 59.4441 2.74901C59.892 2.98191 60.2778 3.28771 60.6012 3.66461C60.9239 4.04161 61.1736 4.46882 61.3503 4.94642C61.5262 5.42313 61.6146 5.90993 61.6146 6.40533C61.6146 6.93084 61.5209 7.43404 61.3334 7.91464C61.146 8.39535 60.8892 8.81865 60.5628 9.18475C60.2355 9.55086 59.8468 9.84346 59.3949 10.0618C58.9431 10.28 58.453 10.3891 57.9244 10.3891ZM55.2475 6.39453C55.2475 6.79384 55.3121 7.18004 55.4404 7.55394C55.5687 7.92784 55.7508 8.25835 55.9859 8.54695C56.221 8.83565 56.5038 9.06475 56.8341 9.23505C57.1646 9.40535 57.5318 9.48976 57.9352 9.48976C58.3539 9.48976 58.7288 9.39996 59.0592 9.21805C59.3895 9.03695 59.67 8.80015 59.9013 8.50835C60.1325 8.21575 60.3092 7.88524 60.4306 7.51524C60.5512 7.14534 60.612 6.77153 60.612 6.39453C60.612 5.99513 60.5474 5.60813 60.4191 5.23502C60.2908 4.86122 60.1072 4.53232 59.8682 4.24742C59.6301 3.96261 59.3472 3.73501 59.0208 3.56471C58.6935 3.39451 58.3323 3.30931 57.9352 3.30931C57.5172 3.30931 57.1422 3.39831 56.8119 3.57561C56.4815 3.75361 56.2003 3.98661 55.969 4.27532C55.7377 4.56332 55.5602 4.89292 55.4351 5.26212C55.3106 5.63213 55.2475 6.00983 55.2475 6.39453ZM66.1853 4.31943V9.83417C66.1853 10.1099 65.9635 10.3335 65.6898 10.3335C65.416 10.3335 65.1942 10.1099 65.1942 9.83417V2.97862C65.1942 2.68931 65.4269 2.45481 65.7141 2.45481C65.8725 2.45481 66.0222 2.52761 66.1209 2.65251L70.8113 8.59116V2.96572C70.8113 2.69001 71.0332 2.46651 71.3069 2.46651C71.5807 2.46651 71.8024 2.69001 71.8024 2.96572V9.76397C71.8024 10.0785 71.5495 10.3335 71.2373 10.3335C71.0657 10.3335 70.9034 10.2549 70.7961 10.12L66.1853 4.31943ZM81.0764 3.34266H78.8188V9.83421C78.8188 10.1099 78.5968 10.3334 78.3233 10.3334C78.0495 10.3334 77.8276 10.1099 77.8276 9.83421V3.34266H75.5692C75.3258 3.34266 75.1286 3.14396 75.1286 2.89876C75.1286 2.65355 75.3258 2.45485 75.5692 2.45485H81.0764C81.3198 2.45485 81.5171 2.65355 81.5171 2.89876C81.5171 3.14396 81.3198 3.34266 81.0764 3.34266ZM84.8439 9.83425V2.9464C84.8439 2.67499 85.0624 2.45489 85.3318 2.45489H88.1922C88.5379 2.45489 88.8545 2.52759 89.145 2.67159C89.4354 2.8155 89.6843 3.0083 89.8948 3.2482C90.1038 3.4889 90.2668 3.7591 90.385 4.0586C90.5018 4.35811 90.5602 4.66311 90.5602 4.97421C90.5602 5.24741 90.5218 5.51212 90.4449 5.76762C90.3681 6.02222 90.2574 6.25362 90.1145 6.46102C89.9716 6.66782 89.798 6.84573 89.5967 6.99353C89.3954 7.14143 89.1696 7.24903 88.919 7.31553L90.3528 9.59925C90.5527 9.91785 90.3255 10.3335 89.9514 10.3335C89.7889 10.3335 89.6377 10.2497 89.5506 10.1115L87.9064 7.50363H85.835V9.83425C85.835 10.1099 85.6132 10.3335 85.3395 10.3335C85.0658 10.3335 84.8439 10.1099 84.8439 9.83425ZM85.835 6.61592H88.2029C88.4089 6.61592 88.5948 6.57182 88.7592 6.48272C88.9252 6.39452 89.0666 6.27372 89.1833 6.12212C89.3017 5.97112 89.3923 5.79542 89.4584 5.59572C89.5245 5.39531 89.5583 5.18871 89.5583 4.97421C89.5583 4.75201 89.5199 4.54311 89.4431 4.34721C89.3647 4.15141 89.2633 3.9773 89.1341 3.8256C89.0052 3.6739 88.8545 3.5555 88.6825 3.4704C88.5102 3.3852 88.3274 3.3427 88.1369 3.3427H85.835V6.61592ZM97.0814 2.4549C97.3348 2.4549 97.563 2.6094 97.6587 2.84571L100.419 9.65496C100.55 9.97886 100.314 10.3335 99.9668 10.3335C99.7675 10.3335 99.5882 10.2116 99.5136 10.0255L98.7121 8.02535H95.4297L94.6381 10.0241C94.564 10.2109 94.3845 10.3335 94.1848 10.3335C93.8379 10.3335 93.6017 9.97886 93.7332 9.65536L96.5042 2.84491C96.6002 2.609 96.8282 2.4549 97.0814 2.4549ZM98.4915 7.24904L97.0816 3.60891L95.6279 7.24904H98.4915ZM103.944 10.0185V2.9464C103.944 2.67499 104.162 2.45489 104.431 2.45489H107.292C107.637 2.45489 107.954 2.52759 108.245 2.67159C108.534 2.8155 108.784 3.0083 108.994 3.2482C109.203 3.4889 109.366 3.7591 109.484 4.0586C109.601 4.35811 109.66 4.66311 109.66 4.97421C109.66 5.24741 109.621 5.51212 109.544 5.76762C109.467 6.02222 109.357 6.25362 109.213 6.46102C109.07 6.66782 108.898 6.84573 108.696 6.99353C108.494 7.14143 108.268 7.24903 108.019 7.31553L109.452 9.59875C109.652 9.91755 109.425 10.3335 109.05 10.3335C108.888 10.3335 108.736 10.2497 108.649 10.1114L107.005 7.50363H104.935V10.0185C104.935 10.1925 104.795 10.3335 104.622 10.3335H104.256C104.083 10.3335 103.944 10.1925 103.944 10.0185ZM104.935 6.61592H107.303C107.508 6.61592 107.694 6.57182 107.859 6.48272C108.024 6.39452 108.165 6.27372 108.283 6.12212C108.4 5.97112 108.492 5.79542 108.558 5.59572C108.624 5.39531 108.657 5.18871 108.657 4.97421C108.657 4.75201 108.619 4.54311 108.542 4.34721C108.464 4.15141 108.362 3.9773 108.233 3.8256C108.105 3.6739 107.954 3.5555 107.782 3.4704C107.609 3.3852 107.427 3.3427 107.236 3.3427H104.935V6.61592ZM113.467 2.67575L115.707 6.56098L117.97 2.67415C118.049 2.53835 118.193 2.45485 118.35 2.45485H118.4C118.742 2.45485 118.953 2.83086 118.778 3.12676L116.203 7.45959V9.83421C116.203 10.1099 115.981 10.3334 115.707 10.3334C115.433 10.3334 115.212 10.1099 115.212 9.83421V7.43709L112.648 3.12696C112.472 2.83106 112.683 2.45485 113.026 2.45485H113.086C113.243 2.45485 113.388 2.53905 113.467 2.67575Z" fill="#1D2334"/>
<path d="M45.0187 29.4627C44.7977 29.4627 44.6187 29.2837 44.6187 29.0627V17.6857C44.6187 17.4648 44.7977 17.2857 45.0187 17.2857H50.004C50.5642 17.2857 51.0788 17.4 51.5476 17.6287C52.0278 17.8574 52.4394 18.1661 52.7824 18.5549C53.1369 18.9436 53.4056 19.3781 53.5885 19.8583C53.7829 20.3385 53.8801 20.8302 53.8801 21.3333C53.8801 21.8478 53.7886 22.3452 53.6057 22.8254C53.4341 23.2942 53.1826 23.7058 52.851 24.0603C52.5194 24.4147 52.1307 24.6891 51.6848 24.8835L54.2789 29.159C54.3598 29.2923 54.2638 29.4627 54.1079 29.4627H52.0802C51.9411 29.4627 51.8119 29.3905 51.7392 29.2719L49.3523 25.3809H46.9855V29.0627C46.9855 29.2837 46.8064 29.4627 46.5855 29.4627H45.0187ZM46.9855 23.3056H49.9525C50.2498 23.3056 50.5128 23.2199 50.7415 23.0484C50.9702 22.8654 51.1531 22.6253 51.2903 22.328C51.4275 22.0307 51.4961 21.6992 51.4961 21.3333C51.4961 20.9445 51.4161 20.6072 51.256 20.3214C51.0959 20.0241 50.8901 19.7897 50.6386 19.6182C50.3985 19.4467 50.1355 19.3609 49.8496 19.3609H46.9855V23.3056Z" fill="#1D2334"/>
<path d="M69.2251 27.3875C69.446 27.3875 69.6251 27.5666 69.6251 27.7875V29.0627C69.6251 29.2837 69.446 29.4627 69.2251 29.4627H61.6698C61.3937 29.4627 61.1698 29.2389 61.1698 28.9627V17.7857C61.1698 17.5096 61.3937 17.2857 61.6698 17.2857H69.0708C69.2917 17.2857 69.4708 17.4648 69.4708 17.6857V18.9609C69.4708 19.1819 69.2917 19.3609 69.0708 19.3609H63.5366V22.2937H68.2647C68.4856 22.2937 68.6647 22.4728 68.6647 22.6937V23.8146C68.6647 24.0355 68.4856 24.2146 68.2647 24.2146H63.5366V27.3875H69.2251Z" fill="#1D2334"/>
<path d="M84.0622 20.1234C83.9664 20.2994 83.7189 20.3433 83.5521 20.2325C83.5125 20.2062 83.47 20.1787 83.4244 20.1499C83.2186 20.0127 82.9613 19.8812 82.6526 19.7554C82.3553 19.6296 82.0295 19.521 81.675 19.4295C81.3206 19.3266 80.9604 19.2752 80.5945 19.2752C79.9542 19.2752 79.4683 19.3952 79.1367 19.6354C78.8166 19.8755 78.6565 20.2128 78.6565 20.6473C78.6565 20.9788 78.7594 21.2418 78.9652 21.4362C79.171 21.6306 79.4797 21.7964 79.8913 21.9336C80.303 22.0708 80.8175 22.2194 81.4349 22.3795C82.2353 22.5739 82.927 22.814 83.5101 23.0998C84.1047 23.3742 84.5563 23.7401 84.8651 24.1975C85.1852 24.6434 85.3453 25.2379 85.3453 25.9811C85.3453 26.6329 85.2252 27.1931 84.9851 27.6619C84.745 28.1193 84.4134 28.4909 83.9904 28.7767C83.5673 29.0626 83.0871 29.2741 82.5497 29.4113C82.0123 29.5371 81.4406 29.6 80.8346 29.6C80.2286 29.6 79.6226 29.5371 79.0166 29.4113C78.4107 29.2855 77.8275 29.1083 77.2673 28.8796C76.7914 28.6757 76.3485 28.4387 75.9386 28.1688C75.8139 28.0866 75.7743 27.9234 75.8424 27.7906L76.582 26.3477C76.6749 26.1666 76.9245 26.1212 77.0908 26.2386C77.1585 26.2865 77.2345 26.3378 77.3187 26.3928C77.5817 26.5528 77.9018 26.7186 78.2792 26.8901C78.6565 27.0502 79.0681 27.1874 79.514 27.3017C79.9599 27.4161 80.4116 27.4733 80.8689 27.4733C81.5092 27.4733 81.9952 27.3646 82.3267 27.1474C82.6583 26.9302 82.8241 26.6214 82.8241 26.2213C82.8241 25.8554 82.6926 25.5695 82.4296 25.3637C82.1667 25.1579 81.8008 24.9807 81.332 24.832C80.8632 24.672 80.3087 24.5005 79.6684 24.3175C78.9023 24.1003 78.262 23.8602 77.7475 23.5972C77.233 23.3228 76.8499 22.9798 76.5984 22.5681C76.3468 22.1565 76.2211 21.642 76.2211 21.0246C76.2211 20.1899 76.4154 19.4924 76.8042 18.9322C77.2044 18.3605 77.7418 17.9317 78.4164 17.6459C79.091 17.3486 79.8399 17.2 80.6631 17.2C81.2348 17.2 81.7722 17.2628 82.2753 17.3886C82.7898 17.5144 83.27 17.6802 83.716 17.886C84.0686 18.0488 84.3927 18.2223 84.6882 18.4065C84.8193 18.4882 84.8601 18.6584 84.7863 18.794L84.0622 20.1234Z" fill="#1D2334"/>
<path d="M100.334 27.3875C100.555 27.3875 100.734 27.5666 100.734 27.7875V29.0627C100.734 29.2837 100.555 29.4627 100.334 29.4627H92.779C92.5029 29.4627 92.279 29.2389 92.279 28.9627V17.7857C92.279 17.5096 92.5029 17.2857 92.779 17.2857H100.18C100.401 17.2857 100.58 17.4648 100.58 17.6857V18.9609C100.58 19.1819 100.401 19.3609 100.18 19.3609H94.6458V22.2937H99.3739C99.5948 22.2937 99.7739 22.4728 99.7739 22.6937V23.8146C99.7739 24.0355 99.5948 24.2146 99.3739 24.2146H94.6458V27.3875H100.334Z" fill="#1D2334"/>
<path d="M110.938 17.5472C110.996 17.3901 111.146 17.2857 111.314 17.2857H113.157C113.325 17.2857 113.474 17.3903 113.532 17.5477L117.715 28.9247C117.811 29.1858 117.617 29.4627 117.339 29.4627H115.755C115.588 29.4627 115.438 29.359 115.38 29.2025L114.345 26.4271H110.092L109.073 29.2006C109.015 29.3581 108.865 29.4627 108.698 29.4627H107.115C106.837 29.4627 106.644 29.1854 106.74 28.9243L110.938 17.5472ZM113.916 24.7634L112.235 19.7383L110.486 24.7634H113.916Z" fill="#1D2334"/>
<path d="M124.793 29.4627C124.572 29.4627 124.393 29.2837 124.393 29.0627V17.6857C124.393 17.4648 124.572 17.2857 124.793 17.2857H129.778C130.339 17.2857 130.853 17.4 131.322 17.6287C131.802 17.8574 132.214 18.1661 132.557 18.5549C132.911 18.9436 133.18 19.3781 133.363 19.8583C133.557 20.3385 133.655 20.8302 133.655 21.3333C133.655 21.8478 133.563 22.3452 133.38 22.8254C133.209 23.2942 132.957 23.7058 132.626 24.0603C132.294 24.4147 131.905 24.6891 131.459 24.8835L134.053 29.159C134.134 29.2923 134.038 29.4627 133.882 29.4627H131.855C131.716 29.4627 131.586 29.3905 131.514 29.2719L129.127 25.3809H126.76V29.0627C126.76 29.2837 126.581 29.4627 126.36 29.4627H124.793ZM126.76 23.3056H129.727C130.024 23.3056 130.287 23.2199 130.516 23.0484C130.745 22.8654 130.928 22.6253 131.065 22.328C131.202 22.0307 131.271 21.6992 131.271 21.3333C131.271 20.9445 131.191 20.6072 131.03 20.3214C130.87 20.0241 130.665 19.7897 130.413 19.6182C130.173 19.4467 129.91 19.3609 129.624 19.3609H126.76V23.3056Z" fill="#1D2334"/>
<path d="M140.14 23.2885C140.14 22.5453 140.271 21.8192 140.534 21.1103C140.809 20.39 141.203 19.7383 141.718 19.1551C142.232 18.5606 142.861 18.0918 143.604 17.7488C144.347 17.3943 145.194 17.2171 146.143 17.2171C147.263 17.2171 148.229 17.4629 149.041 17.9546C149.755 18.3811 150.31 18.9196 150.706 19.5699C150.81 19.741 150.753 19.9603 150.588 20.0739L149.453 20.8555C149.248 20.9971 148.966 20.9159 148.833 20.7047C148.667 20.442 148.474 20.2228 148.252 20.047C147.921 19.7726 147.566 19.5839 147.189 19.481C146.811 19.3667 146.44 19.3095 146.074 19.3095C145.479 19.3095 144.959 19.4295 144.513 19.6697C144.079 19.9098 143.713 20.2242 143.416 20.613C143.118 21.0017 142.895 21.4362 142.747 21.9164C142.61 22.3966 142.541 22.8769 142.541 23.3571C142.541 23.8945 142.627 24.4147 142.798 24.9178C142.97 25.4094 143.21 25.8497 143.519 26.2384C143.839 26.6157 144.216 26.9187 144.65 27.1474C145.096 27.3646 145.582 27.4733 146.108 27.4733C146.486 27.4733 146.869 27.4104 147.257 27.2846C147.646 27.1588 148.006 26.9587 148.338 26.6843C148.56 26.5003 148.749 26.2802 148.905 26.0242C149.03 25.8187 149.294 25.7268 149.502 25.8467L150.748 26.5633C150.92 26.6623 150.996 26.874 150.905 27.0507C150.662 27.522 150.315 27.9316 149.864 28.2793C149.327 28.7024 148.721 29.0225 148.046 29.2398C147.372 29.457 146.703 29.5656 146.04 29.5656C145.171 29.5656 144.376 29.3884 143.656 29.034C142.935 28.6681 142.312 28.1879 141.786 27.5933C141.272 26.9873 140.866 26.3127 140.569 25.5695C140.283 24.8149 140.14 24.0545 140.14 23.2885Z" fill="#1D2334"/>
<path d="M167.619 17.2857C167.84 17.2857 168.019 17.4648 168.019 17.6857V29.0627C168.019 29.2837 167.84 29.4627 167.619 29.4627H166.07C165.849 29.4627 165.67 29.2837 165.67 29.0627V24.2661H160.147V29.0627C160.147 29.2837 159.968 29.4627 159.747 29.4627H158.18C157.959 29.4627 157.78 29.2837 157.78 29.0627V17.6857C157.78 17.4648 157.959 17.2857 158.18 17.2857H159.747C159.968 17.2857 160.147 17.4648 160.147 17.6857V22.208H165.67V17.6857C165.67 17.4648 165.849 17.2857 166.07 17.2857H167.619Z" fill="#1D2334"/>
<path fill-rule="evenodd" clip-rule="evenodd" d="M15.9239 28.1799C15.9003 28.1861 15.8766 28.1919 15.853 28.198C15.7561 28.2226 15.659 28.2462 15.5616 28.2686C15.5385 28.2738 15.5154 28.2789 15.4922 28.2841C15.3951 28.3058 15.298 28.3264 15.2004 28.3458C15.1748 28.3509 15.1492 28.3557 15.1236 28.3607C15.0292 28.3788 14.9345 28.3962 14.8395 28.4122C14.8093 28.4173 14.7791 28.4221 14.7488 28.427C14.6589 28.4415 14.5691 28.4553 14.4789 28.4679C14.4424 28.473 14.4058 28.4777 14.3693 28.4825C14.2854 28.4935 14.2015 28.5039 14.1174 28.5133C14.074 28.5181 14.0307 28.5224 13.9873 28.5268C13.9097 28.5346 13.8323 28.5419 13.7548 28.5483C13.7047 28.5524 13.6545 28.556 13.6043 28.5595C13.5331 28.5645 13.4618 28.5692 13.3903 28.573C13.3344 28.576 13.2783 28.5783 13.2224 28.5807C13.1563 28.5833 13.09 28.5858 13.0238 28.5873C12.9635 28.5889 12.9032 28.5897 12.8427 28.5904C12.7801 28.591 12.7173 28.5914 12.6547 28.5912C12.5923 28.5909 12.5301 28.59 12.4678 28.5888C12.4057 28.5876 12.3435 28.5863 12.2814 28.5842C12.2204 28.5822 12.1596 28.5794 12.0986 28.5765C12.0339 28.5734 11.9693 28.57 11.9047 28.5659C11.8808 28.5644 11.8569 28.5637 11.8331 28.562C11.811 28.5605 11.789 28.5577 11.7671 28.5561C11.6298 28.5459 11.4926 28.5336 11.3557 28.519C11.3363 28.5168 11.3169 28.5153 11.2975 28.513C11.2791 28.511 11.2607 28.5096 11.2424 28.5074C11.1341 28.4948 11.0267 28.4782 10.919 28.4629C10.8722 28.4562 10.8251 28.4508 10.7784 28.4436C10.6426 28.4226 10.5076 28.3982 10.3726 28.3727C10.3383 28.3662 10.3037 28.3609 10.2694 28.3541C10.1303 28.3267 9.99201 28.2959 9.85406 28.2638C9.82344 28.2568 9.79262 28.2506 9.7621 28.2433C9.62626 28.2108 9.49153 28.1749 9.35699 28.1378C9.32396 28.1287 9.29073 28.1207 9.2578 28.1113C9.13009 28.0752 9.00349 28.0358 8.87719 27.9955C8.83743 27.9829 8.79737 27.9714 8.75772 27.9584C8.64105 27.92 8.52549 27.8786 8.40994 27.8369C8.36134 27.8193 8.31225 27.8029 8.26366 27.7848C8.15934 27.7457 8.05633 27.7037 7.95302 27.6619C7.89429 27.6382 7.83516 27.6155 7.77682 27.5909C7.68536 27.5522 7.59521 27.511 7.50475 27.4704C7.43587 27.4394 7.3667 27.4095 7.29833 27.3773C7.21861 27.3396 7.1401 27.2996 7.06119 27.2604C6.98408 27.2221 6.90657 27.1848 6.83027 27.1449C6.75939 27.1078 6.68971 27.0685 6.61953 27.0302C6.53741 26.9851 6.45488 26.941 6.37366 26.8944C6.3079 26.8564 6.24334 26.8164 6.17818 26.7773C6.09516 26.7274 6.01172 26.6783 5.9297 26.6264C5.86364 26.5847 5.79888 26.5409 5.73362 26.4978C5.65541 26.4465 5.5767 26.3957 5.49969 26.3426C5.4267 26.2921 5.35532 26.2394 5.28344 26.1874C5.21687 26.1393 5.14971 26.0923 5.08405 26.0428C4.9961 25.9767 4.91016 25.908 4.82391 25.8394C4.77733 25.8024 4.72994 25.7666 4.68386 25.7288C4.57081 25.6365 4.46017 25.5412 4.35044 25.4448C4.33548 25.4317 4.31992 25.4194 4.30506 25.4062C4.30405 25.4053 4.30305 25.4042 4.30204 25.4032C4.15556 25.2732 4.01129 25.1406 3.87093 25.0036C3.60127 24.7402 3.59665 24.3088 3.86089 24.04C4.12524 23.7711 4.55806 23.7665 4.82753 24.0299C4.95895 24.1583 5.09459 24.2822 5.23213 24.4037C5.33815 24.4975 5.44578 24.5893 5.55521 24.6788C5.58915 24.7066 5.62409 24.7331 5.65842 24.7603C5.74216 24.8273 5.82599 24.8939 5.91153 24.9583C5.96454 24.9981 6.01875 25.036 6.07227 25.0749C6.14184 25.1252 6.21102 25.1762 6.2817 25.225C6.34615 25.2694 6.41191 25.3117 6.47717 25.3547C6.53962 25.396 6.60156 25.4379 6.66472 25.4778C6.73469 25.5219 6.80597 25.5638 6.87676 25.6064C6.9378 25.6431 6.99844 25.6806 7.06008 25.7162C7.13026 25.7566 7.20164 25.7947 7.27262 25.8336C7.33738 25.869 7.40164 25.9052 7.4671 25.9393C7.53336 25.9741 7.60083 26.0065 7.66779 26.0398C7.73968 26.0756 7.81136 26.1122 7.88415 26.1465C7.94409 26.1747 8.00493 26.201 8.06527 26.2281C8.14679 26.2647 8.22801 26.3019 8.31034 26.3367C8.36225 26.3586 8.41496 26.3787 8.46716 26.3998C8.55933 26.4371 8.65129 26.4746 8.74436 26.5094C8.78763 26.5256 8.83141 26.5403 8.87488 26.5559C8.97789 26.5931 9.0811 26.6301 9.18511 26.6643C9.22025 26.6759 9.25589 26.686 9.29123 26.6973C9.40408 26.733 9.51703 26.7682 9.63088 26.8006C9.6604 26.809 9.69041 26.8162 9.72013 26.8244C9.83981 26.8572 9.95978 26.8893 10.0806 26.9183C10.1081 26.9249 10.1361 26.9304 10.1637 26.9368C10.2865 26.9652 10.4095 26.9926 10.5333 27.0171C10.5636 27.023 10.5943 27.0278 10.6248 27.0336C10.7454 27.0562 10.8662 27.078 10.9876 27.0968C11.0282 27.1031 11.0693 27.1078 11.1102 27.1138C11.2236 27.1301 11.3369 27.146 11.4507 27.1588C11.4673 27.1606 11.4839 27.1621 11.5005 27.1639C11.6236 27.1771 11.747 27.1881 11.8707 27.1973C11.9103 27.2002 11.9501 27.2032 11.9897 27.2058C12.0492 27.2096 12.1085 27.2126 12.1679 27.2154C12.2204 27.218 12.2731 27.2203 12.3257 27.2221C12.3831 27.224 12.4407 27.2253 12.4983 27.2264C12.5515 27.2274 12.6046 27.2282 12.6579 27.2284C12.7164 27.2288 12.7748 27.2283 12.8334 27.2276C12.8847 27.2271 12.9359 27.2264 12.9871 27.2252C13.0488 27.2236 13.1107 27.2214 13.1723 27.2188C13.2195 27.217 13.2667 27.2149 13.3138 27.2125C13.3803 27.2089 13.4469 27.2046 13.5134 27.1999C13.5551 27.197 13.5969 27.1939 13.6387 27.1905C13.711 27.1846 13.7831 27.1778 13.8553 27.1705C13.8909 27.167 13.9264 27.1634 13.962 27.1595C14.0402 27.1508 14.1184 27.1412 14.1965 27.131C14.2257 27.127 14.255 27.1233 14.2842 27.1192C14.3679 27.1074 14.4514 27.0947 14.5348 27.0812C14.5585 27.0773 14.5823 27.0736 14.606 27.0696C14.6939 27.0548 14.7814 27.0389 14.8688 27.022C14.8885 27.0182 14.9083 27.0144 14.928 27.0105C15.0179 26.9927 15.1075 26.9736 15.197 26.9536C15.2148 26.9496 15.2327 26.9457 15.2506 26.9417C15.34 26.9212 15.4292 26.8995 15.5181 26.8767C15.5368 26.8721 15.5553 26.8674 15.5738 26.8626C15.66 26.8402 15.7459 26.8166 15.8315 26.7923C15.8539 26.7858 15.8762 26.7795 15.8986 26.7729C15.9778 26.7498 16.0567 26.7256 16.1354 26.7007C16.1655 26.6912 16.1957 26.6817 16.2258 26.6719C16.2942 26.6495 16.3623 26.6264 16.4302 26.6028C16.4718 26.5883 16.5135 26.5739 16.5549 26.5589C16.7447 26.4905 16.9326 26.4177 17.1183 26.3392C17.4654 26.1921 17.8669 26.3538 18.0144 26.7002C18.1621 27.0466 17.9999 27.4466 17.6524 27.5937C17.4792 27.6669 17.3038 27.7351 17.1274 27.8004C17.1185 27.8041 17.1099 27.8084 17.1008 27.8118C17.0749 27.8214 17.0486 27.83 17.0226 27.8394C16.9746 27.8567 16.9264 27.8734 16.8782 27.8901C16.8037 27.916 16.7291 27.9415 16.6539 27.9659C16.6183 27.9776 16.5825 27.9889 16.5467 28.0001C16.4607 28.0274 16.3743 28.0539 16.2878 28.0793C16.2603 28.0873 16.2326 28.0951 16.205 28.1029C16.1116 28.1296 16.018 28.1554 15.9239 28.1799ZM20.3824 17.6975C20.468 17.3149 20.5252 16.922 20.5527 16.5295C20.6996 14.425 20.0106 12.3933 18.6124 10.8094C17.2366 9.25022 15.3343 8.31231 13.2564 8.16828C12.5264 8.11764 11.7944 8.16788 11.0808 8.31811C10.7119 8.39508 10.3487 8.15998 10.2708 7.79176C10.193 7.42354 10.4293 7.06212 10.7987 6.98446C11.6361 6.8085 12.4949 6.74925 13.3513 6.8087C15.7906 6.97785 18.0237 8.07881 19.6389 9.90909C21.28 11.7684 22.0889 14.1534 21.9165 16.6244C21.8843 17.0845 21.817 17.5452 21.7168 17.9938C21.6424 18.3272 21.3346 18.5487 21.0031 18.5257C20.9693 18.5234 20.9351 18.5183 20.901 18.5108C20.5325 18.4291 20.3003 18.0649 20.3824 17.6975ZM17.5583 2.15213C17.2018 2.02832 17.0134 1.64008 17.1377 1.28457C17.2618 0.929066 17.6516 0.741304 18.0078 0.865111C20.6048 1.76639 22.9435 3.33725 24.7708 5.40745C26.9139 7.83575 28.2563 10.8094 28.6528 14.0069C28.6992 14.3805 28.4331 14.7207 28.0585 14.7669C28.0138 14.7725 27.9695 14.7735 27.9265 14.7706C27.6066 14.7484 27.3369 14.5031 27.2962 14.1744C26.9332 11.2497 25.7052 8.52946 23.7444 6.30783C22.0724 4.41359 19.9332 2.97644 17.5583 2.15213ZM28.0836 16.8124C28.4594 16.8492 28.734 17.1826 28.6969 17.5571C28.2971 21.6071 26.3883 25.3188 23.3221 28.0085C21.395 29.6989 19.165 30.8746 16.6941 31.5029C16.6215 31.5215 16.5484 31.5276 16.4776 31.5228C16.1914 31.5028 15.9376 31.3035 15.8628 31.011C15.7696 30.6466 15.9905 30.2755 16.3563 30.1824C18.6157 29.6078 20.6556 28.5322 22.4188 26.9853C25.2242 24.5245 26.9706 21.1289 27.3365 17.4238C27.3734 17.0491 27.7133 16.7817 28.0836 16.8124ZM7.43353 8.43815C7.74336 8.22236 8.16935 8.29843 8.38531 8.60659C8.60157 8.91506 8.52597 9.33993 8.21644 9.55542C8.14154 9.60766 8.06735 9.66191 7.99386 9.71696C7.96856 9.74438 7.94135 9.7705 7.91093 9.79402C7.67851 9.97388 7.45311 10.1696 7.24117 10.3755C7.10503 10.5079 6.92753 10.5722 6.75133 10.5689C6.57784 10.5657 6.40536 10.4968 6.27464 10.3631C6.01109 10.0937 6.01671 9.66211 6.28709 9.39958C6.36289 9.32592 6.4406 9.25375 6.51931 9.18249C6.54692 9.14566 6.57864 9.11113 6.61479 9.0795C6.87522 8.85091 7.15071 8.63522 7.43353 8.43815ZM20.2506 25.8856C20.0694 25.873 19.8938 25.7891 19.7697 25.6383C19.5299 25.3475 19.5723 24.918 19.8639 24.6791C19.9641 24.5972 20.0632 24.5131 20.1614 24.4272C22.405 22.4593 23.755 19.7386 23.9623 16.7667C24.1252 14.4333 23.5714 12.1492 22.3608 10.1615C22.1647 9.83968 22.2676 9.42052 22.5902 9.22525C22.913 9.02938 23.3334 9.13247 23.5293 9.45395C24.8876 11.6839 25.5087 14.2454 25.3262 16.8612C25.0937 20.1935 23.5801 23.2439 21.0642 25.4505C20.9545 25.5468 20.8436 25.6407 20.7317 25.7324C20.5912 25.8473 20.4185 25.8972 20.2506 25.8856ZM21.2223 6.66073C21.4724 6.88802 21.5424 7.27336 21.3559 7.555C21.1326 7.89199 20.6874 7.95745 20.3807 7.73446C18.5631 6.0502 16.2045 5.00099 13.7204 4.77859C10.6955 4.50786 7.75218 5.43476 5.43258 7.38846C5.20076 7.58353 4.94123 7.79271 4.67618 8.0098C4.40149 8.23499 3.99789 8.20236 3.76286 7.93643C3.55744 7.70423 3.5462 7.36754 3.71808 7.12393C3.99558 6.8584 4.25812 6.60828 4.35731 6.5211C6.91335 4.27916 10.1919 3.174 13.5889 3.40951C16.4224 3.60598 19.1322 4.76028 21.2223 6.66073ZM2.56201 21.2959C2.71723 20.9907 2.93258 20.727 3.20235 20.5118C3.70595 20.1106 4.33545 19.9311 4.97508 20.0059C5.60458 20.0794 6.16932 20.3919 6.56519 20.8857C6.6188 20.9526 6.67472 21.0169 6.73024 21.0817C6.75645 21.1088 6.78386 21.1343 6.80896 21.1628C8.18491 22.7217 10.0873 23.6595 12.1651 23.8036C14.2766 23.9501 16.3146 23.2631 17.9035 21.8693C18.0165 21.7703 18.1265 21.6681 18.2335 21.563L18.2347 21.5619C18.3331 21.4651 18.4282 21.3652 18.5212 21.2637C18.5311 21.2528 18.5417 21.2425 18.5515 21.2315C18.6309 21.1437 18.7071 21.0535 18.7822 20.9624C18.8048 20.9352 18.8282 20.9087 18.8504 20.8812C18.9402 20.7695 19.0273 20.6558 19.1107 20.5396C19.3303 20.2334 19.7571 20.1631 20.0644 20.3818C20.3714 20.6008 20.4423 21.0264 20.2228 21.3325C20.143 21.4437 20.06 21.5525 19.9752 21.6602C19.6255 22.1039 19.2342 22.5176 18.8065 22.8926C16.9413 24.5287 14.549 25.335 12.0702 25.1632C9.63095 24.9941 7.39789 23.893 5.78269 22.0628C5.75909 22.0361 5.73429 22.0111 5.70849 21.9873C5.63731 21.9045 5.56583 21.822 5.49725 21.7365C5.32758 21.5248 5.08552 21.391 4.81585 21.3595C4.54166 21.3274 4.27189 21.4045 4.05604 21.5762C3.94018 21.6687 3.84781 21.7817 3.78155 21.9118C3.61087 22.2477 3.19904 22.3818 2.86301 22.2117C2.83399 22.1971 2.80719 22.1801 2.78128 22.1621C2.50589 21.9712 2.4061 21.6027 2.56201 21.2959ZM0.895344 8.36582C0.733903 8.18446 0.598667 7.97968 0.497667 7.75629C0.347772 7.425 0.270566 7.05498 0.28673 6.66714C0.310625 6.09374 0.717539 5.38073 1.0102 5.04664C1.99069 3.92707 4.01321 2.40635 5.83072 1.547C8.62229 0.227458 11.6911 -0.258363 14.7346 0.129673C14.8872 0.14909 15.0397 0.168707 15.1921 0.192528C15.5652 0.250878 15.8201 0.599581 15.7615 0.971303C15.7545 1.01564 15.7434 1.05838 15.7288 1.09891C15.6193 1.39937 15.3087 1.59034 14.9804 1.5389C12.06 1.082 9.09868 1.51057 6.41654 2.77847C5.40884 3.25488 4.46199 3.84299 3.59395 4.52689C3.02178 4.97748 2.32883 5.5767 1.98627 6.00046C1.86238 6.1537 1.67684 6.48538 1.67745 6.72479C1.67795 6.99713 1.76319 7.24805 1.92955 7.43841C1.93928 7.44962 1.94902 7.46063 1.95916 7.47124C2.20032 7.75408 2.17693 8.17805 1.90063 8.43157C1.86469 8.4644 1.82624 8.49272 1.78608 8.51675C1.5138 8.67909 1.15738 8.63825 0.929078 8.40355C0.917632 8.39114 0.906588 8.37843 0.895344 8.36582ZM13.1285 30.6314C13.507 30.6218 13.8203 30.9175 13.8309 31.2936C13.8393 31.6021 13.6409 31.8679 13.3614 31.9597C13.2273 31.9654 13.0932 31.9692 12.9593 31.9718C12.8937 31.973 12.8279 31.9742 12.7622 31.9747C12.7723 31.9746 12.7822 31.9749 12.7923 31.9748C12.9814 31.9735 13.1714 31.9677 13.3614 31.9597C13.3 31.9799 13.2345 31.9919 13.1666 31.9938C12.6449 32.0083 12.1166 31.9972 11.596 31.9612C7.79104 31.6975 4.2749 30.1301 1.56184 27.515C3.4678 29.339 5.74734 30.6417 8.22255 31.3517C8.14043 31.328 8.059 31.303 7.97738 31.2782C6.09481 30.7039 4.34277 29.7917 2.79603 28.579C2.78027 28.5667 2.76421 28.5549 2.74854 28.5426C2.73298 28.5304 2.71752 28.5181 2.70206 28.5059C2.69975 28.5041 2.69734 28.5022 2.69493 28.5004C2.67435 28.4843 2.65377 28.4681 2.63339 28.4517C2.62766 28.4469 2.62274 28.4417 2.61722 28.4368C1.84285 27.8117 1.12129 27.1109 0.462979 26.3382C0.431454 26.3009 0.399527 26.2641 0.368203 26.2264C0.136986 25.9378 0.178049 25.5168 0.463682 25.2787C0.731745 25.0559 1.11968 25.0724 1.36787 25.3035C1.38835 25.3226 1.40813 25.3427 1.4266 25.3647C1.45612 25.3999 1.48654 25.4342 1.51646 25.4693C1.86665 25.8825 2.23802 26.2736 2.62766 26.6421C2.72344 26.7324 2.81963 26.8221 2.91751 26.9095C2.95767 26.9455 2.99853 26.9806 3.0391 27.0161C3.16369 27.125 3.28889 27.2329 3.41669 27.3373C3.42352 27.3428 3.43025 27.3485 3.43707 27.3541C5.77033 29.2533 8.62806 30.3893 11.6908 30.6016C12.1673 30.6346 12.6511 30.6448 13.1285 30.6314Z" fill="#1D2334"/>
</svg>
